<svg width="404" height="237" viewBox="0 0 404 237" fill="none" xmlns="http://www.w3.org/2000/svg">
<path d="M1 1H244.506C246.033 1 247.545 1.23457 248.973 1.77739C266.769 8.54369 297.172 28.7632 291.537 62.2816V236H47.4698C45.6259 236 43.7962 235.656 42.1346 234.857C29.6114 228.831 7.25822 212.652 1 187.114V1Z" fill="url(#paint0_linear_54_95)"/>
<path d="M303.941 87.7875C303.941 82.8992 306.491 78.365 310.668 75.8253L381.726 32.6171C391.056 26.944 403 33.6601 403 44.5792V190.354C403 201.035 391.52 207.782 382.188 202.585L311.129 163.009C306.692 160.537 303.941 155.857 303.941 150.778V87.7875Z" fill="url(#paint1_linear_54_95)"/>
<path d="M1 1H244.506C246.033 1 247.545 1.23457 248.973 1.77739C266.769 8.54369 297.172 28.7632 291.537 62.2816M1 1C1 50.9331 1 158.062 1 187.114M1 1V187.114M291.537 62.2816C291.537 93.9874 291.537 191.305 291.537 236M291.537 62.2816V236M291.537 236H47.4698C45.6259 236 43.7962 235.656 42.1346 234.857C29.6114 228.831 7.25822 212.652 1 187.114M311.129 163.009L382.188 202.585C391.52 207.782 403 201.035 403 190.354V44.5792C403 33.6601 391.056 26.944 381.726 32.6171L310.668 75.8253C306.491 78.365 303.941 82.8992 303.941 87.7875V150.778C303.941 155.857 306.692 160.537 311.129 163.009Z" stroke="white" stroke-linejoin="round"/>
<defs>
<linearGradient id="paint0_linear_54_95" x1="202" y1="1" x2="202" y2="236" gradientUnits="userSpaceOnUse">
<stop stop-color="#659CC9"/>
<stop offset="1" stop-color="#008CFF"/>
</linearGradient>
<linearGradient id="paint1_linear_54_95" x1="202" y1="1" x2="202" y2="236" gradientUnits="userSpaceOnUse">
<stop stop-color="#659CC9"/>
<stop offset="1" stop-color="#008CFF"/>
</linearGradient>
</defs>
</svg>
