<svg width="1688" height="348" viewBox="0 0 1688 348" fill="none" xmlns="http://www.w3.org/2000/svg">
<path d="M1 56H244.506C246.033 56 247.545 56.2346 248.973 56.7774C266.769 63.5437 297.172 83.7632 291.537 117.282V291H47.4698C45.6259 291 43.7962 290.656 42.1346 289.857C29.6114 283.831 7.25822 267.652 1 242.114V56Z" fill="url(#paint0_linear_54_97)"/>
<path d="M303.941 142.787C303.941 137.899 306.491 133.365 310.668 130.825L381.726 87.6171C391.056 81.944 403 88.6601 403 99.5792V245.354C403 256.035 391.52 262.782 382.188 257.585L311.129 218.009C306.692 215.537 303.941 210.857 303.941 205.778V142.787Z" fill="url(#paint1_linear_54_97)"/>
<path d="M1 56H244.506C246.033 56 247.545 56.2346 248.973 56.7774C266.769 63.5437 297.172 83.7632 291.537 117.282M1 56C1 105.933 1 213.062 1 242.114M1 56V242.114M291.537 117.282C291.537 148.987 291.537 246.305 291.537 291M291.537 117.282V291M291.537 291H47.4698C45.6259 291 43.7962 290.656 42.1346 289.857C29.6114 283.831 7.25822 267.652 1 242.114M311.129 218.009L382.188 257.585C391.52 262.782 403 256.035 403 245.354V99.5792C403 88.6601 391.056 81.944 381.726 87.6171L310.668 130.825C306.491 133.365 303.941 137.899 303.941 142.787V205.778C303.941 210.857 306.692 215.537 311.129 218.009Z" stroke="white" stroke-linejoin="round"/>
<path d="M540.382 72.9802V274.5H503.876V72.9802H540.382ZM613.96 185.942V274.5H578.339V123.36H612.385V149.042H614.156C617.633 140.58 623.176 133.856 630.786 128.87C638.461 123.885 647.94 121.392 659.223 121.392C669.653 121.392 678.738 123.623 686.479 128.083C694.285 132.544 700.321 139.006 704.584 147.468C708.914 155.93 711.046 166.196 710.98 178.266V274.5H675.36V183.777C675.36 173.675 672.736 165.77 667.488 160.063C662.306 154.356 655.123 151.502 645.939 151.502C639.707 151.502 634.164 152.88 629.31 155.635C624.521 158.324 620.749 162.228 617.994 167.344C615.304 172.461 613.96 178.66 613.96 185.942ZM822.662 123.36V150.912H735.777V123.36H822.662ZM757.228 87.1496H792.848V229.04C792.848 233.829 793.569 237.502 795.012 240.061C796.521 242.553 798.489 244.259 800.916 245.177C803.344 246.096 806.033 246.555 808.985 246.555C811.215 246.555 813.249 246.391 815.086 246.063C816.988 245.735 818.431 245.44 819.415 245.177L825.418 273.024C823.515 273.68 820.793 274.402 817.251 275.189C813.774 275.976 809.51 276.435 804.459 276.566C795.537 276.829 787.501 275.484 780.351 272.532C773.201 269.514 767.527 264.857 763.328 258.559C759.196 252.262 757.162 244.39 757.228 234.944V87.1496ZM917.74 277.452C902.586 277.452 889.499 274.303 878.479 268.006C867.524 261.643 859.094 252.656 853.191 241.045C847.287 229.368 844.335 215.625 844.335 199.816C844.335 184.269 847.287 170.624 853.191 158.882C859.16 147.074 867.491 137.89 878.184 131.33C888.876 124.705 901.438 121.392 915.87 121.392C925.185 121.392 933.976 122.901 942.241 125.919C950.572 128.87 957.919 133.462 964.282 139.694C970.711 145.926 975.762 153.864 979.436 163.507C983.109 173.084 984.946 184.498 984.946 197.749V208.672H861.062V184.662H950.802C950.736 177.84 949.26 171.772 946.374 166.459C943.487 161.08 939.453 156.848 934.271 153.765C929.154 150.682 923.185 149.141 916.362 149.141C909.081 149.141 902.685 150.912 897.175 154.454C891.664 157.931 887.368 162.523 884.284 168.23C881.267 173.871 879.725 180.07 879.66 186.827V207.786C879.66 216.576 881.267 224.12 884.481 230.418C887.696 236.649 892.189 241.438 897.962 244.784C903.734 248.064 910.491 249.704 918.232 249.704C923.414 249.704 928.104 248.982 932.303 247.539C936.501 246.03 940.142 243.833 943.225 240.946C946.308 238.06 948.637 234.485 950.211 230.221L983.47 233.96C981.371 242.75 977.369 250.425 971.465 256.985C965.627 263.479 958.149 268.531 949.03 272.138C939.912 275.681 929.482 277.452 917.74 277.452ZM1015.08 274.5V123.36H1049.62V148.55H1051.19C1053.95 139.826 1058.67 133.102 1065.36 128.378C1072.12 123.59 1079.83 121.195 1088.49 121.195C1090.45 121.195 1092.65 121.294 1095.08 121.491C1097.57 121.622 1099.64 121.851 1101.28 122.179V154.946C1099.77 154.421 1097.37 153.962 1094.09 153.568C1090.88 153.109 1087.76 152.88 1084.75 152.88C1078.25 152.88 1072.41 154.29 1067.23 157.111C1062.11 159.866 1058.08 163.703 1055.13 168.623C1052.18 173.543 1050.7 179.218 1050.7 185.646V274.5H1015.08ZM1209.61 123.36V150.912H1120.27V123.36H1209.61ZM1142.6 274.5V109.092C1142.6 98.9246 1144.7 90.4623 1148.9 83.7057C1153.17 76.949 1158.87 71.8979 1166.02 68.5523C1173.17 65.2068 1181.11 63.534 1189.84 63.534C1196 63.534 1201.48 64.026 1206.27 65.01C1211.06 65.994 1214.6 66.8795 1216.9 67.6667L1209.81 95.2183C1208.3 94.7591 1206.4 94.2999 1204.1 93.8407C1201.81 93.3159 1199.25 93.0535 1196.43 93.0535C1189.8 93.0535 1185.11 94.6607 1182.36 97.875C1179.67 101.024 1178.32 105.55 1178.32 111.454V274.5H1142.6ZM1273.13 72.9802V274.5H1237.51V72.9802H1273.13ZM1375.69 277.452C1360.93 277.452 1348.13 274.205 1337.31 267.711C1326.49 261.216 1318.09 252.131 1312.12 240.454C1306.22 228.778 1303.26 215.133 1303.26 199.52C1303.26 183.908 1306.22 170.231 1312.12 158.488C1318.09 146.746 1326.49 137.628 1337.31 131.134C1348.13 124.639 1360.93 121.392 1375.69 121.392C1390.45 121.392 1403.24 124.639 1414.06 131.134C1424.88 137.628 1433.25 146.746 1439.15 158.488C1445.12 170.231 1448.11 183.908 1448.11 199.52C1448.11 215.133 1445.12 228.778 1439.15 240.454C1433.25 252.131 1424.88 261.216 1414.06 267.711C1403.24 274.205 1390.45 277.452 1375.69 277.452ZM1375.88 248.916C1383.89 248.916 1390.58 246.719 1395.96 242.324C1401.33 237.863 1405.34 231.894 1407.96 224.415C1410.65 216.937 1411.99 208.606 1411.99 199.422C1411.99 190.173 1410.65 181.809 1407.96 174.331C1405.34 166.787 1401.33 160.784 1395.96 156.324C1390.58 151.863 1383.89 149.633 1375.88 149.633C1367.68 149.633 1360.86 151.863 1355.42 156.324C1350.04 160.784 1346 166.787 1343.31 174.331C1340.69 181.809 1339.38 190.173 1339.38 199.422C1339.38 208.606 1340.69 216.937 1343.31 224.415C1346 231.894 1350.04 237.863 1355.42 242.324C1360.86 246.719 1367.68 248.916 1375.88 248.916ZM1505.2 274.5L1462.5 123.36H1498.81L1525.37 229.63H1526.75L1553.91 123.36H1589.82L1616.98 229.04H1618.46L1644.63 123.36H1681.04L1638.24 274.5H1601.14L1572.8 172.363H1570.74L1542.4 274.5H1505.2Z" fill="white"/>
<defs>
<linearGradient id="paint0_linear_54_97" x1="202" y1="56" x2="202" y2="291" gradientUnits="userSpaceOnUse">
<stop stop-color="#659CC9"/>
<stop offset="1" stop-color="#008CFF"/>
</linearGradient>
<linearGradient id="paint1_linear_54_97" x1="202" y1="56" x2="202" y2="291" gradientUnits="userSpaceOnUse">
<stop stop-color="#659CC9"/>
<stop offset="1" stop-color="#008CFF"/>
</linearGradient>
</defs>
</svg>
